<?xml version="1.0" encoding="utf-8"?>
<!-- Generator: Adobe Illustrator 24.0.3, SVG Export Plug-In . SVG Version: 6.00 Build 0)  -->
<svg version="1.1" id="Layer_1" xmlns="http://www.w3.org/2000/svg" xmlns:xlink="http://www.w3.org/1999/xlink" x="0px" y="0px"
	 viewBox="0 0 612 792" style="enable-background:new 0 0 612 792;" xml:space="preserve">
<style type="text/css">
	.st0{stroke:#000000;stroke-miterlimit:10;}
	.st1{stroke:#000000;stroke-width:15;stroke-miterlimit:10;}
	.st2{stroke:#000000;stroke-width:2;stroke-miterlimit:10;}
</style>
<g id="XMLID_487_">
	<path id="XMLID_488_" class="st0" d="M26,72.4L26,72.4c0.2,0.1,0.3,0.3,0.4,0.5l2.6,6.4v0.1c0,0.1-0.1,0.2-0.2,0.2
		c-0.1,0-0.1,0-0.1-0.1L28,77.5h-5.4l-0.8,1.9c0,0.1-0.1,0.1-0.2,0.1c0,0-0.1,0-0.1,0c0,0,0-0.1,0-0.1c0,0,0-0.1,0-0.1l2.6-6.4
		c0.1-0.2,0.2-0.4,0.5-0.5l0,0c0.2-0.1,0.4-0.2,0.6-0.2C25.6,72.2,25.8,72.2,26,72.4L26,72.4z M25,72.5l-0.2,0.1
		c-0.2,0.1-0.3,0.2-0.3,0.4l-1.7,4.2h5.1l-1.7-4.2c-0.1-0.2-0.2-0.3-0.3-0.4l0,0c-0.2-0.1-0.3-0.2-0.5-0.2
		C25.2,72.5,25.1,72.5,25,72.5L25,72.5L25,72.5z"/>
	<path id="XMLID_491_" class="st0" d="M39.7,79.3c0,0.1-0.1,0.2-0.2,0.2c0,0-0.1,0-0.1-0.1c0,0-0.1-0.1-0.1-0.1v-3.1
		c0-0.3-0.1-0.5-0.2-0.8c-0.1-0.2-0.2-0.4-0.4-0.6c-0.2-0.2-0.4-0.3-0.6-0.4c-0.2-0.1-0.5-0.2-0.7-0.2H37c-0.3,0-0.5,0.1-0.7,0.2
		c-0.2,0.1-0.4,0.2-0.6,0.4c-0.2,0.2-0.3,0.4-0.4,0.6c-0.1,0.2-0.2,0.5-0.2,0.7v3.1c0,0.1-0.1,0.2-0.2,0.2c-0.1,0-0.2-0.1-0.2-0.2
		v-3.1c0-0.3-0.1-0.5-0.2-0.7c-0.1-0.2-0.2-0.4-0.4-0.6c-0.2-0.2-0.4-0.3-0.6-0.4c-0.2-0.1-0.5-0.2-0.7-0.2h-0.5
		c-0.2,0-0.5,0.1-0.7,0.2s-0.4,0.2-0.6,0.4c-0.2,0.2-0.3,0.4-0.4,0.6c-0.1,0.2-0.2,0.5-0.2,0.7v3.1c0,0.1-0.1,0.2-0.2,0.2
		c-0.1,0-0.2-0.1-0.2-0.2v-3.1c0-0.3,0.1-0.6,0.2-0.9c0.1-0.3,0.3-0.5,0.5-0.7s0.4-0.4,0.7-0.5s0.6-0.2,0.9-0.2h0.5
		c0.4,0,0.8,0.1,1.1,0.3c0.4,0.2,0.6,0.5,0.8,0.8l0.2,0.2l0.2-0.2c0.2-0.4,0.5-0.6,0.8-0.8c0.3-0.2,0.7-0.3,1.1-0.3h0.5
		c0.3,0,0.6,0.1,0.9,0.2c0.3,0.1,0.5,0.3,0.7,0.5c0.2,0.2,0.4,0.5,0.5,0.7s0.2,0.6,0.2,0.9v0L39.7,79.3L39.7,79.3z"/>
	<path id="XMLID_493_" class="st0" d="M41.4,78c0.2,0.4,0.4,0.6,0.7,0.8c0.3,0.2,0.7,0.3,1,0.3h2.4c0.1,0,0.2,0.1,0.2,0.2
		c0,0.1-0.1,0.2-0.2,0.2h-2.4c-0.3,0-0.6-0.1-0.9-0.2c-0.3-0.1-0.5-0.3-0.7-0.5s-0.4-0.5-0.5-0.8c-0.1-0.3-0.2-0.6-0.2-0.9v-0.9
		c0-0.3,0.1-0.6,0.2-0.9c0.1-0.3,0.3-0.5,0.5-0.7c0.2-0.2,0.5-0.4,0.7-0.5c0.3-0.1,0.6-0.2,0.9-0.2h1c0.3,0,0.6,0.1,0.9,0.2
		c0.3,0.1,0.5,0.3,0.7,0.5c0.2,0.2,0.4,0.5,0.5,0.7c0.1,0.3,0.2,0.6,0.2,0.9v0.9c0,0.1,0,0.2-0.1,0.2c-0.1,0.1-0.1,0.1-0.2,0.1h-4.9
		L41.4,78z M46.1,76.2c0-0.3-0.1-0.5-0.2-0.7c-0.1-0.2-0.2-0.4-0.4-0.6c-0.2-0.2-0.4-0.3-0.6-0.4c-0.2-0.1-0.5-0.2-0.7-0.2h-1
		c-0.2,0-0.5,0.1-0.7,0.2c-0.2,0.1-0.4,0.2-0.6,0.4c-0.2,0.2-0.3,0.4-0.4,0.6c-0.1,0.2-0.2,0.5-0.2,0.7v0.9h4.8L46.1,76.2L46.1,76.2
		z"/>
	<path id="XMLID_496_" class="st0" d="M47.8,76.2c0-0.3,0.1-0.6,0.2-0.9c0.1-0.3,0.3-0.5,0.5-0.7c0.2-0.2,0.4-0.4,0.7-0.5
		C49.4,74,49.7,74,50,74h0.7c0.3,0,0.6,0.1,0.9,0.2c0.3,0.1,0.5,0.3,0.7,0.5c0,0,0.1,0.1,0.1,0.1c0,0.1-0.1,0.2-0.2,0.2
		c-0.1,0-0.1,0-0.1-0.1c-0.2-0.2-0.4-0.3-0.6-0.4c-0.2-0.1-0.5-0.2-0.7-0.2H50c-0.2,0-0.5,0.1-0.7,0.2c-0.2,0.1-0.4,0.2-0.6,0.4
		c-0.2,0.2-0.3,0.4-0.4,0.6c-0.1,0.2-0.2,0.5-0.2,0.7v3.1c0,0.1-0.1,0.2-0.2,0.2c-0.1,0-0.2-0.1-0.2-0.2V76.2L47.8,76.2z"/>
	<path id="XMLID_498_" class="st0" d="M53.9,72.5c0.1,0,0.1,0,0.2,0.1c0,0,0.1,0.1,0.1,0.2s0,0.1-0.1,0.2c0,0-0.1,0.1-0.2,0.1
		s-0.1,0-0.2-0.1c0,0-0.1-0.1-0.1-0.2s0-0.1,0.1-0.2S53.9,72.5,53.9,72.5z M53.8,74.2c0-0.1,0.1-0.2,0.2-0.2c0.1,0,0.2,0.1,0.2,0.2
		v5.1c0,0.1-0.1,0.2-0.2,0.2c-0.1,0-0.2-0.1-0.2-0.2V74.2z"/>
	<path id="XMLID_501_" class="st0" d="M60.2,79.1c0.1,0,0.2,0.1,0.2,0.2c0,0.1-0.1,0.2-0.2,0.2h-2.1c-0.3,0-0.6-0.1-0.9-0.2
		c-0.3-0.1-0.5-0.3-0.7-0.5c-0.2-0.2-0.4-0.5-0.5-0.7c-0.1-0.3-0.2-0.6-0.2-0.9v-1c0-0.3,0.1-0.6,0.2-0.9c0.1-0.3,0.3-0.5,0.5-0.7
		c0.2-0.2,0.5-0.4,0.7-0.5c0.3-0.1,0.6-0.2,0.9-0.2h2.1c0.1,0,0.2,0.1,0.2,0.2c0,0.1-0.1,0.2-0.2,0.2h-2.1c-0.2,0-0.5,0.1-0.7,0.2
		c-0.2,0.1-0.4,0.2-0.6,0.4c-0.2,0.2-0.3,0.4-0.4,0.6c-0.1,0.2-0.2,0.5-0.2,0.8v1c0,0.3,0.1,0.5,0.2,0.7c0.1,0.2,0.2,0.4,0.4,0.6
		c0.2,0.2,0.4,0.3,0.6,0.4c0.2,0.1,0.5,0.2,0.7,0.2h2L60.2,79.1L60.2,79.1z"/>
	<path id="XMLID_503_" class="st0" d="M64.5,74c0.3,0,0.6,0.1,0.9,0.2c0.3,0.1,0.5,0.3,0.7,0.5c0.2,0.2,0.4,0.5,0.5,0.7
		c0.1,0.3,0.2,0.6,0.2,0.9v1c0,0.3-0.1,0.6-0.2,0.9c-0.1,0.3-0.3,0.5-0.5,0.7c-0.2,0.2-0.5,0.4-0.7,0.5c-0.3,0.1-0.6,0.2-0.9,0.2
		h-1.4c-0.2,0-0.5,0-0.7-0.1c-0.2-0.1-0.4-0.2-0.6-0.4c-0.2-0.2-0.3-0.4-0.4-0.6c-0.1-0.2-0.1-0.5-0.1-0.7c0-0.2,0-0.5,0.1-0.7
		c0.1-0.2,0.2-0.4,0.4-0.6c0.2-0.2,0.4-0.3,0.6-0.4c0.2-0.1,0.5-0.1,0.7-0.1h3.4l-0.1-0.2c-0.1-0.2-0.1-0.4-0.3-0.6
		c-0.1-0.2-0.3-0.3-0.4-0.5c-0.2-0.1-0.4-0.2-0.5-0.3c-0.2-0.1-0.4-0.1-0.6-0.1h-2.3c-0.1,0-0.2-0.1-0.2-0.2s0.1-0.2,0.2-0.2h0.2
		L64.5,74L64.5,74z M64.5,79.1c0.3,0,0.5-0.1,0.8-0.2s0.4-0.2,0.6-0.4c0.2-0.2,0.3-0.4,0.4-0.6c0.1-0.2,0.2-0.5,0.2-0.7v-0.9h-3.4
		c-0.2,0-0.4,0-0.6,0.1s-0.3,0.2-0.5,0.3c-0.1,0.1-0.2,0.3-0.3,0.5s-0.1,0.4-0.1,0.5c0,0.2,0,0.4,0.1,0.6s0.2,0.3,0.3,0.5
		c0.1,0.1,0.3,0.2,0.5,0.3s0.4,0.1,0.6,0.1h0.8L64.5,79.1L64.5,79.1z"/>
	<path id="XMLID_506_" class="st0" d="M73.7,79.3c0,0.1-0.1,0.2-0.2,0.2c-0.1,0-0.2-0.1-0.2-0.2v-3.1c0-0.3-0.1-0.5-0.2-0.7
		c-0.1-0.2-0.2-0.4-0.4-0.6c-0.2-0.2-0.4-0.3-0.6-0.4c-0.2-0.1-0.5-0.2-0.7-0.2h-1c-0.2,0-0.5,0.1-0.7,0.2c-0.2,0.1-0.4,0.2-0.6,0.4
		c-0.2,0.2-0.3,0.4-0.4,0.6c-0.1,0.2-0.2,0.5-0.2,0.7v3.1c0,0.1-0.1,0.2-0.2,0.2c-0.1,0-0.2-0.1-0.2-0.2v-3.1c0-0.3,0.1-0.6,0.2-0.9
		c0.1-0.3,0.3-0.5,0.5-0.7s0.4-0.4,0.7-0.5c0.3-0.1,0.6-0.2,0.9-0.2h1c0.3,0,0.6,0.1,0.9,0.2c0.3,0.1,0.5,0.3,0.7,0.5
		c0.2,0.2,0.4,0.4,0.5,0.7s0.2,0.6,0.2,0.9v0L73.7,79.3L73.7,79.3z"/>
</g>
<g id="XMLID_508_">
	<path id="XMLID_509_" class="st0" d="M31.2,83.1L31.2,83.1c0.2,0.1,0.3,0.3,0.4,0.5l2.7,6.4v0.1c0,0.1-0.1,0.2-0.2,0.2
		c-0.1,0-0.1,0-0.1-0.1l-0.8-1.9h-5.4L27,90.2c0,0.1-0.1,0.1-0.2,0.1c0,0-0.1,0-0.1,0c0,0,0-0.1,0-0.1c0,0,0-0.1,0-0.1l2.7-6.4
		c0.1-0.2,0.2-0.4,0.5-0.5l0,0c0.2-0.1,0.4-0.2,0.6-0.2C30.8,82.9,31,83,31.2,83.1L31.2,83.1z M30.2,83.3L30,83.4
		c-0.2,0.1-0.3,0.2-0.3,0.4L28,88h5.1l-1.7-4.2c-0.1-0.2-0.2-0.3-0.3-0.4l0,0c-0.2-0.1-0.3-0.2-0.5-0.2
		C30.4,83.2,30.3,83.3,30.2,83.3L30.2,83.3L30.2,83.3z"/>
	<path id="XMLID_512_" class="st0" d="M35.4,83.1c0-0.1,0.1-0.2,0.2-0.2c0.1,0,0.2,0.1,0.2,0.2v7c0,0.1-0.1,0.2-0.2,0.2
		c-0.1,0-0.2-0.1-0.2-0.2V83.1z"/>
	<path id="XMLID_514_" class="st0" d="M37.5,84.9c0-0.1,0.1-0.2,0.2-0.2c0.1,0,0.2,0.1,0.2,0.2V88c0,0.3,0.1,0.5,0.2,0.8
		c0.1,0.2,0.2,0.4,0.4,0.6c0.2,0.2,0.4,0.3,0.6,0.4c0.2,0.1,0.5,0.2,0.7,0.2h0.5c0.3,0,0.5-0.1,0.8-0.2c0.2-0.1,0.4-0.2,0.6-0.4
		c0.2-0.2,0.3-0.4,0.4-0.6c0.1-0.2,0.2-0.5,0.2-0.8v-3.1c0-0.1,0.1-0.2,0.2-0.2c0.1,0,0.2,0.1,0.2,0.2V88c0,0.3-0.1,0.6-0.2,0.9
		c-0.1,0.3-0.3,0.5-0.5,0.7c-0.2,0.2-0.5,0.4-0.7,0.5c-0.3,0.1-0.6,0.2-0.9,0.2h-0.5c-0.3,0-0.6-0.1-0.9-0.2
		c-0.3-0.1-0.5-0.3-0.7-0.5c-0.2-0.2-0.4-0.5-0.5-0.7c-0.1-0.3-0.2-0.6-0.2-0.9v0L37.5,84.9L37.5,84.9z"/>
	<path id="XMLID_516_" class="st0" d="M53.4,90.1c0,0.1-0.1,0.2-0.2,0.2c0,0-0.1,0-0.1-0.1c0,0-0.1-0.1-0.1-0.1V87
		c0-0.3-0.1-0.5-0.2-0.8c-0.1-0.2-0.2-0.5-0.4-0.6c-0.2-0.2-0.4-0.3-0.6-0.4c-0.2-0.1-0.5-0.2-0.7-0.2h-0.5c-0.3,0-0.5,0.1-0.8,0.2
		c-0.2,0.1-0.4,0.2-0.6,0.4c-0.2,0.2-0.3,0.4-0.4,0.6c-0.1,0.2-0.2,0.5-0.2,0.7v3.2c0,0.1-0.1,0.2-0.2,0.2c-0.1,0-0.2-0.1-0.2-0.2
		V87c0-0.3-0.1-0.5-0.2-0.8c-0.1-0.2-0.2-0.4-0.4-0.6c-0.2-0.2-0.4-0.3-0.6-0.4C47,85.1,46.7,85,46.4,85H46c-0.3,0-0.5,0.1-0.7,0.2
		c-0.2,0.1-0.4,0.2-0.6,0.4c-0.2,0.2-0.3,0.4-0.4,0.6c-0.1,0.2-0.2,0.5-0.2,0.7v3.2c0,0.1-0.1,0.2-0.2,0.2c-0.1,0-0.2-0.1-0.2-0.2
		v-3.1c0-0.3,0.1-0.6,0.2-0.9c0.1-0.3,0.3-0.5,0.5-0.7c0.2-0.2,0.5-0.4,0.7-0.5c0.3-0.1,0.6-0.2,0.9-0.2h0.5c0.4,0,0.8,0.1,1.1,0.3
		c0.4,0.2,0.6,0.5,0.8,0.8l0.2,0.2l0.2-0.2c0.2-0.4,0.5-0.6,0.8-0.8c0.3-0.2,0.7-0.3,1.1-0.3h0.5c0.3,0,0.6,0.1,0.9,0.2
		c0.3,0.1,0.5,0.3,0.7,0.5c0.2,0.2,0.4,0.5,0.5,0.7c0.1,0.3,0.2,0.6,0.2,0.9v0L53.4,90.1L53.4,90.1z"/>
	<path id="XMLID_518_" class="st0" d="M54.8,83.2c0.1,0,0.1,0,0.2,0.1c0,0,0.1,0.1,0.1,0.2s0,0.1-0.1,0.2c0,0-0.1,0.1-0.2,0.1
		s-0.1,0-0.2-0.1c0,0-0.1-0.1-0.1-0.2s0-0.1,0.1-0.2C54.6,83.2,54.7,83.2,54.8,83.2z M54.6,85c0-0.1,0.1-0.2,0.2-0.2
		c0.1,0,0.2,0.1,0.2,0.2v5.1c0,0.1-0.1,0.2-0.2,0.2c-0.1,0-0.2-0.1-0.2-0.2V85z"/>
	<path id="XMLID_521_" class="st0" d="M62.2,90.1c0,0.1-0.1,0.2-0.2,0.2c-0.1,0-0.2-0.1-0.2-0.2V87c0-0.3-0.1-0.5-0.2-0.8
		c-0.1-0.2-0.2-0.4-0.4-0.6c-0.2-0.2-0.4-0.3-0.6-0.4C60.5,85.1,60.2,85,60,85h-1c-0.3,0-0.5,0.1-0.7,0.2c-0.2,0.1-0.4,0.2-0.6,0.4
		c-0.2,0.2-0.3,0.4-0.4,0.6c-0.1,0.2-0.2,0.5-0.2,0.7v3.2c0,0.1-0.1,0.2-0.2,0.2c-0.1,0-0.2-0.1-0.2-0.2V87c0-0.3,0.1-0.6,0.2-0.9
		s0.3-0.5,0.5-0.7c0.2-0.2,0.5-0.4,0.7-0.5c0.3-0.1,0.6-0.2,0.9-0.2h1c0.3,0,0.6,0.1,0.9,0.2c0.3,0.1,0.5,0.3,0.7,0.5
		c0.2,0.2,0.4,0.5,0.5,0.7c0.1,0.3,0.2,0.6,0.2,0.9v0L62.2,90.1L62.2,90.1z"/>
	<path id="XMLID_523_" class="st0" d="M63.7,84.9c0-0.1,0.1-0.2,0.2-0.2c0.1,0,0.2,0.1,0.2,0.2V88c0,0.3,0.1,0.5,0.2,0.8
		c0.1,0.2,0.2,0.4,0.4,0.6c0.2,0.2,0.4,0.3,0.6,0.4s0.5,0.2,0.7,0.2h0.5c0.3,0,0.5-0.1,0.8-0.2c0.2-0.1,0.4-0.2,0.6-0.4
		c0.2-0.2,0.3-0.4,0.4-0.6c0.1-0.2,0.2-0.5,0.2-0.8v-3.1c0-0.1,0.1-0.2,0.2-0.2c0.1,0,0.2,0.1,0.2,0.2V88c0,0.3-0.1,0.6-0.2,0.9
		c-0.1,0.3-0.3,0.5-0.5,0.7s-0.5,0.4-0.7,0.5c-0.3,0.1-0.6,0.2-0.9,0.2h-0.5c-0.3,0-0.6-0.1-0.9-0.2c-0.3-0.1-0.5-0.3-0.7-0.5
		c-0.2-0.2-0.4-0.5-0.5-0.7c-0.1-0.3-0.2-0.6-0.2-0.9v0L63.7,84.9L63.7,84.9z"/>
	<path id="XMLID_525_" class="st0" d="M79.6,90.1c0,0.1-0.1,0.2-0.2,0.2c0,0-0.1,0-0.1-0.1s-0.1-0.1-0.1-0.1V87
		c0-0.3-0.1-0.5-0.2-0.8c-0.1-0.2-0.2-0.5-0.4-0.6c-0.2-0.2-0.4-0.3-0.6-0.4c-0.2-0.1-0.5-0.2-0.7-0.2h-0.5c-0.3,0-0.5,0.1-0.8,0.2
		c-0.2,0.1-0.4,0.2-0.6,0.4s-0.3,0.4-0.4,0.6c-0.1,0.2-0.2,0.5-0.2,0.7v3.2c0,0.1-0.1,0.2-0.2,0.2c-0.1,0-0.2-0.1-0.2-0.2V87
		c0-0.3-0.1-0.5-0.2-0.8c-0.1-0.2-0.2-0.4-0.4-0.6c-0.2-0.2-0.4-0.3-0.6-0.4c-0.2-0.1-0.5-0.2-0.7-0.2h-0.5c-0.3,0-0.5,0.1-0.7,0.2
		c-0.2,0.1-0.4,0.2-0.6,0.4c-0.2,0.2-0.3,0.4-0.4,0.6c-0.1,0.2-0.2,0.5-0.2,0.7v3.2c0,0.1-0.1,0.2-0.2,0.2c-0.1,0-0.2-0.1-0.2-0.2
		v-3.1c0-0.3,0.1-0.6,0.2-0.9s0.3-0.5,0.5-0.7c0.2-0.2,0.5-0.4,0.7-0.5c0.3-0.1,0.6-0.2,0.9-0.2h0.5c0.4,0,0.8,0.1,1.1,0.3
		s0.6,0.5,0.8,0.8l0.2,0.2l0.2-0.2c0.2-0.4,0.5-0.6,0.8-0.8c0.3-0.2,0.7-0.3,1.1-0.3h0.5c0.3,0,0.6,0.1,0.9,0.2
		c0.3,0.1,0.5,0.3,0.7,0.5c0.2,0.2,0.4,0.5,0.5,0.7c0.1,0.3,0.2,0.6,0.2,0.9v0L79.6,90.1L79.6,90.1z"/>
</g>
<g id="XMLID_527_">
	<path id="XMLID_528_" class="st0" d="M33.2,95.7c0-0.4,0.1-0.8,0.3-1.2c0.2-0.4,0.4-0.7,0.7-1c0.3-0.3,0.6-0.5,1-0.7
		c0.4-0.2,0.8-0.2,1.2-0.2h1.3c0.1,0,0.2,0.1,0.2,0.2c0,0.1-0.1,0.2-0.2,0.2h-1.3c-0.4,0-0.7,0.1-1.1,0.2c-0.3,0.2-0.6,0.3-0.9,0.6
		c-0.2,0.2-0.5,0.5-0.6,0.9c-0.2,0.3-0.2,0.7-0.2,1.1v1.9h4c0.1,0,0.2,0.1,0.2,0.2c0,0.1-0.1,0.2-0.2,0.2h-4v1.8
		c0,0.1-0.1,0.2-0.2,0.2c-0.1,0-0.2-0.1-0.2-0.2v-0.2L33.2,95.7L33.2,95.7z"/>
	<path id="XMLID_530_" class="st0" d="M42.2,94.4c0.3,0,0.6,0.1,0.9,0.2c0.3,0.1,0.5,0.3,0.7,0.5c0.2,0.2,0.4,0.5,0.5,0.7
		c0.1,0.3,0.2,0.6,0.2,0.9v1c0,0.3-0.1,0.6-0.2,0.9c-0.1,0.3-0.3,0.5-0.5,0.7c-0.2,0.2-0.5,0.4-0.7,0.5c-0.3,0.1-0.6,0.2-0.9,0.2
		h-1.4c-0.2,0-0.5,0-0.7-0.1s-0.4-0.2-0.6-0.4c-0.2-0.2-0.3-0.3-0.4-0.6C39,98.6,39,98.4,39,98.2s0-0.5,0.1-0.7
		c0.1-0.2,0.2-0.4,0.4-0.5c0.2-0.2,0.3-0.3,0.6-0.4c0.2-0.1,0.4-0.1,0.7-0.1h3.3L44,96.2c-0.1-0.2-0.1-0.4-0.2-0.6
		c-0.1-0.2-0.3-0.3-0.4-0.5c-0.2-0.1-0.3-0.2-0.5-0.3c-0.2-0.1-0.4-0.1-0.6-0.1h-2.3c-0.1,0-0.2-0.1-0.2-0.2c0-0.1,0.1-0.2,0.2-0.2
		h0.2L42.2,94.4L42.2,94.4z M42.2,99.6c0.3,0,0.5-0.1,0.8-0.2c0.2-0.1,0.4-0.2,0.6-0.4c0.2-0.2,0.3-0.4,0.4-0.6
		c0.1-0.2,0.2-0.5,0.2-0.7v-0.9h-3.3c-0.2,0-0.4,0-0.5,0.1c-0.2,0.1-0.3,0.2-0.5,0.3c-0.1,0.1-0.2,0.3-0.3,0.5
		c-0.1,0.2-0.1,0.4-0.1,0.5c0,0.2,0,0.4,0.1,0.5c0.1,0.2,0.2,0.3,0.3,0.5c0.1,0.1,0.3,0.2,0.5,0.3c0.2,0.1,0.4,0.1,0.5,0.1h0.8
		L42.2,99.6L42.2,99.6z"/>
	<path id="XMLID_533_" class="st0" d="M45.8,92.7c0-0.1,0.1-0.2,0.2-0.2s0.2,0.1,0.2,0.2v2.6l0.3-0.3c0.2-0.2,0.4-0.4,0.7-0.5
		c0.3-0.1,0.6-0.2,0.9-0.2h1c0.3,0,0.6,0.1,0.9,0.2c0.3,0.1,0.5,0.3,0.7,0.5c0.2,0.2,0.4,0.4,0.5,0.7c0.1,0.3,0.2,0.6,0.2,0.9v1.1
		c0,0.3-0.1,0.6-0.2,0.9c-0.1,0.3-0.3,0.5-0.5,0.7c-0.2,0.2-0.4,0.4-0.7,0.5c-0.3,0.1-0.6,0.2-0.9,0.2h-1c-0.3,0-0.6-0.1-0.9-0.2
		c-0.3-0.1-0.5-0.3-0.7-0.5c-0.2-0.2-0.4-0.4-0.5-0.7c-0.1-0.3-0.2-0.6-0.2-0.9L45.8,92.7L45.8,92.7z M46.1,97.7
		c0,0.3,0.1,0.5,0.2,0.7s0.2,0.4,0.4,0.6s0.4,0.3,0.6,0.4s0.5,0.2,0.7,0.2h1c0.3,0,0.5-0.1,0.7-0.2s0.4-0.2,0.6-0.4
		c0.2-0.2,0.3-0.4,0.4-0.6c0.1-0.2,0.2-0.5,0.2-0.7v-1.1c0-0.3-0.1-0.5-0.2-0.7c-0.1-0.2-0.2-0.4-0.4-0.6c-0.2-0.2-0.4-0.3-0.6-0.4
		c-0.2-0.1-0.5-0.2-0.7-0.2h-1c-0.2,0-0.5,0.1-0.7,0.2c-0.2,0.1-0.4,0.2-0.6,0.4c-0.2,0.2-0.3,0.4-0.4,0.6c-0.1,0.2-0.2,0.5-0.2,0.7
		V97L46.1,97.7L46.1,97.7z"/>
	<path id="XMLID_536_" class="st0" d="M52.4,96.6c0-0.3,0.1-0.6,0.2-0.9c0.1-0.3,0.3-0.5,0.5-0.7c0.2-0.2,0.4-0.4,0.7-0.5
		c0.3-0.1,0.6-0.2,0.9-0.2h0.7c0.3,0,0.6,0.1,0.9,0.2c0.3,0.1,0.5,0.3,0.7,0.5c0,0,0.1,0.1,0.1,0.1c0,0.1-0.1,0.2-0.2,0.2
		c-0.1,0-0.1,0-0.1-0.1c-0.2-0.2-0.4-0.3-0.6-0.4c-0.2-0.1-0.5-0.2-0.7-0.2h-0.7c-0.2,0-0.5,0.1-0.7,0.2c-0.2,0.1-0.4,0.2-0.6,0.4
		c-0.2,0.2-0.3,0.4-0.4,0.6c-0.1,0.2-0.2,0.5-0.2,0.7v3.1c0,0.1-0.1,0.2-0.2,0.2c-0.1,0-0.2-0.1-0.2-0.2V96.6L52.4,96.6z"/>
	<path id="XMLID_538_" class="st0" d="M58.5,93c0.1,0,0.1,0,0.2,0.1c0,0,0.1,0.1,0.1,0.2s0,0.1-0.1,0.2c0,0-0.1,0.1-0.2,0.1
		s-0.1,0-0.2-0.1c0,0-0.1-0.1-0.1-0.2s0-0.1,0.1-0.2C58.4,93,58.5,93,58.5,93z M58.4,94.7c0-0.1,0.1-0.2,0.2-0.2
		c0.1,0,0.2,0.1,0.2,0.2v5.1c0,0.1-0.1,0.2-0.2,0.2c-0.1,0-0.2-0.1-0.2-0.2V94.7z"/>
	<path id="XMLID_541_" class="st0" d="M64.8,99.6c0.1,0,0.2,0.1,0.2,0.2c0,0.1-0.1,0.2-0.2,0.2h-2.1c-0.3,0-0.6-0.1-0.9-0.2
		c-0.3-0.1-0.5-0.3-0.7-0.5s-0.4-0.5-0.5-0.7c-0.1-0.3-0.2-0.6-0.2-0.9v-1c0-0.3,0.1-0.6,0.2-0.9c0.1-0.3,0.3-0.5,0.5-0.7
		c0.2-0.2,0.5-0.4,0.7-0.5c0.3-0.1,0.6-0.2,0.9-0.2h2.1c0.1,0,0.2,0.1,0.2,0.2c0,0.1-0.1,0.2-0.2,0.2h-2.1c-0.2,0-0.5,0.1-0.7,0.2
		c-0.2,0.1-0.4,0.2-0.6,0.4c-0.2,0.2-0.3,0.4-0.4,0.6c-0.1,0.2-0.2,0.5-0.2,0.7v1c0,0.3,0.1,0.5,0.2,0.7c0.1,0.2,0.2,0.4,0.4,0.6
		c0.2,0.2,0.4,0.3,0.6,0.4c0.2,0.1,0.5,0.2,0.7,0.2h1.9L64.8,99.6L64.8,99.6z"/>
	<path id="XMLID_543_" class="st0" d="M69.1,94.4c0.3,0,0.6,0.1,0.9,0.2c0.3,0.1,0.5,0.3,0.7,0.5s0.4,0.5,0.5,0.7
		c0.1,0.3,0.2,0.6,0.2,0.9v1c0,0.3-0.1,0.6-0.2,0.9c-0.1,0.3-0.3,0.5-0.5,0.7c-0.2,0.2-0.5,0.4-0.7,0.5c-0.3,0.1-0.6,0.2-0.9,0.2
		h-1.4c-0.2,0-0.5,0-0.7-0.1s-0.4-0.2-0.6-0.4c-0.2-0.2-0.3-0.3-0.4-0.6c-0.1-0.2-0.1-0.4-0.1-0.7s0-0.5,0.1-0.7
		c0.1-0.2,0.2-0.4,0.4-0.5c0.2-0.2,0.3-0.3,0.6-0.4c0.2-0.1,0.4-0.1,0.7-0.1h3.3l-0.1-0.2c-0.1-0.2-0.1-0.4-0.2-0.6
		c-0.1-0.2-0.3-0.3-0.4-0.5c-0.2-0.1-0.3-0.2-0.5-0.3c-0.2-0.1-0.4-0.1-0.6-0.1h-2.3c-0.1,0-0.2-0.1-0.2-0.2c0-0.1,0.1-0.2,0.2-0.2
		h0.2L69.1,94.4L69.1,94.4z M69.1,99.6c0.3,0,0.5-0.1,0.8-0.2s0.4-0.2,0.6-0.4c0.2-0.2,0.3-0.4,0.4-0.6c0.1-0.2,0.2-0.5,0.2-0.7
		v-0.9h-3.3c-0.2,0-0.4,0-0.5,0.1c-0.2,0.1-0.3,0.2-0.5,0.3c-0.1,0.1-0.2,0.3-0.3,0.5c-0.1,0.2-0.1,0.4-0.1,0.5c0,0.2,0,0.4,0.1,0.5
		c0.1,0.2,0.2,0.3,0.3,0.5c0.1,0.1,0.3,0.2,0.5,0.3c0.2,0.1,0.4,0.1,0.5,0.1h0.8L69.1,99.6L69.1,99.6z"/>
	<path id="XMLID_546_" class="st0" d="M73,97.7c0,0.3,0.1,0.5,0.2,0.7s0.2,0.4,0.4,0.6s0.4,0.3,0.6,0.4c0.2,0.1,0.5,0.2,0.7,0.2h0.5
		c0.1,0,0.2,0.1,0.2,0.2c0,0.1-0.1,0.2-0.2,0.2h-0.5c-0.3,0-0.6-0.1-0.9-0.2c-0.3-0.1-0.5-0.3-0.7-0.5c-0.2-0.2-0.4-0.4-0.5-0.7
		s-0.2-0.6-0.2-0.9v-4.9c0-0.1,0.1-0.2,0.2-0.2s0.2,0.1,0.2,0.2v1.6h2.2c0.1,0,0.2,0.1,0.2,0.2c0,0.1-0.1,0.2-0.2,0.2H73V97V97.7z"
		/>
	<path id="XMLID_548_" class="st0" d="M80.2,94.4c0.3,0,0.6,0.1,0.9,0.2c0.3,0.1,0.5,0.3,0.7,0.5s0.4,0.5,0.5,0.7
		c0.1,0.3,0.2,0.6,0.2,0.9v1c0,0.3-0.1,0.6-0.2,0.9c-0.1,0.3-0.3,0.5-0.5,0.7c-0.2,0.2-0.5,0.4-0.7,0.5c-0.3,0.1-0.6,0.2-0.9,0.2h-1
		c-0.3,0-0.6-0.1-0.9-0.2c-0.3-0.1-0.5-0.3-0.7-0.5c-0.2-0.2-0.4-0.5-0.5-0.7C77,98.3,77,98,77,97.7v-1c0-0.3,0.1-0.6,0.2-0.9
		c0.1-0.3,0.3-0.5,0.5-0.7s0.5-0.4,0.7-0.5c0.3-0.1,0.6-0.2,0.9-0.2H80.2z M79.2,94.8c-0.2,0-0.5,0.1-0.7,0.2
		c-0.2,0.1-0.4,0.2-0.6,0.4c-0.2,0.2-0.3,0.4-0.4,0.6c-0.1,0.2-0.2,0.5-0.2,0.7v1c0,0.2,0.1,0.5,0.2,0.7c0.1,0.2,0.2,0.4,0.4,0.6
		c0.2,0.2,0.4,0.3,0.6,0.4c0.2,0.1,0.5,0.2,0.7,0.2h1c0.3,0,0.5-0.1,0.7-0.2c0.2-0.1,0.4-0.2,0.6-0.4c0.2-0.2,0.3-0.4,0.4-0.6
		c0.1-0.2,0.2-0.5,0.2-0.7v-1c0-0.3-0.1-0.5-0.2-0.7c-0.1-0.2-0.2-0.4-0.4-0.6S81.2,95,81,94.9c-0.2-0.1-0.5-0.2-0.7-0.2L79.2,94.8
		L79.2,94.8z"/>
	<path id="XMLID_551_" class="st0" d="M83.8,96.6c0-0.3,0.1-0.6,0.2-0.9c0.1-0.3,0.3-0.5,0.5-0.7c0.2-0.2,0.4-0.4,0.7-0.5
		c0.3-0.1,0.6-0.2,0.9-0.2h0.7c0.3,0,0.6,0.1,0.9,0.2c0.3,0.1,0.5,0.3,0.7,0.5c0,0,0.1,0.1,0.1,0.1c0,0.1-0.1,0.2-0.2,0.2
		c-0.1,0-0.1,0-0.1-0.1c-0.2-0.2-0.4-0.3-0.6-0.4c-0.2-0.1-0.5-0.2-0.7-0.2h-0.7c-0.2,0-0.5,0.1-0.7,0.2c-0.2,0.1-0.4,0.2-0.6,0.4
		c-0.2,0.2-0.3,0.4-0.4,0.6c-0.1,0.2-0.2,0.5-0.2,0.7v3.1c0,0.1-0.1,0.2-0.2,0.2s-0.2-0.1-0.2-0.2V96.6L83.8,96.6z"/>
	<path id="XMLID_553_" class="st0" d="M94.5,95.8c0,0.1-0.1,0.2-0.2,0.2c-0.1,0-0.2-0.1-0.2-0.2v-0.1c0-0.1,0-0.2-0.1-0.3
		c0-0.1-0.1-0.2-0.2-0.2l-0.1-0.1c-0.2-0.2-0.4-0.3-0.7-0.3h-2.1c-0.3,0-0.5,0.1-0.7,0.3c-0.2,0.2-0.3,0.4-0.3,0.7
		c0,0.3,0.1,0.6,0.3,0.7c0.2,0.2,0.5,0.3,0.8,0.4c0.3,0.1,0.7,0.1,1.1,0.2c0.4,0,0.8,0.1,1.1,0.2s0.6,0.2,0.8,0.5
		c0.2,0.2,0.3,0.5,0.3,0.9c0,0.2,0,0.4-0.1,0.5c-0.1,0.2-0.2,0.3-0.3,0.4c-0.1,0.1-0.3,0.2-0.4,0.3c-0.2,0.1-0.3,0.1-0.5,0.1h-2.3
		c-0.2,0-0.3,0-0.5-0.1s-0.3-0.2-0.4-0.2c-0.1-0.1-0.2-0.2-0.3-0.4c-0.1-0.2-0.1-0.3-0.1-0.5c0-0.1,0-0.2,0-0.2
		c0-0.1,0.1-0.1,0.2-0.1c0.1,0,0.2,0.1,0.2,0.2v0.2c0,0.1,0,0.2,0.1,0.3c0.1,0.1,0.1,0.2,0.2,0.3c0.1,0.1,0.2,0.1,0.3,0.2
		c0.1,0,0.2,0.1,0.3,0.1h2.3c0.3,0,0.5-0.1,0.7-0.3c0.2-0.2,0.3-0.4,0.3-0.7c0-0.2,0-0.4-0.1-0.5c-0.1-0.1-0.2-0.2-0.3-0.3
		c-0.1-0.1-0.2-0.2-0.4-0.2c-0.2-0.1-0.3-0.1-0.4-0.1c-0.3-0.1-0.6-0.1-1-0.1s-0.8-0.1-1.1-0.2c-0.3-0.1-0.6-0.3-0.9-0.5
		c-0.2-0.2-0.4-0.5-0.4-0.9c0-0.2,0-0.4,0.1-0.5c0.1-0.2,0.2-0.3,0.3-0.4c0.1-0.1,0.3-0.2,0.4-0.3c0.2-0.1,0.3-0.1,0.5-0.1h2.1
		c0.4,0,0.7,0.1,0.9,0.4l0,0c0.1,0.1,0.2,0.2,0.2,0.4C94.6,95.4,94.6,95.5,94.5,95.8C94.6,95.7,94.6,95.7,94.5,95.8
		C94.5,95.7,94.5,95.7,94.5,95.8z"/>
</g>
<path id="XMLID_595_" class="st1" d="M78.9,88.3"/>
<path id="XMLID_637_" d="M122.9,38.7c-1.1,0.9-2.2,1.9-3.5,2.6c-1.6,1-3.3,1.9-5,2.8c-2.8,1.4-5.7,2.4-8.7,3.3
	c-0.4,0.1-0.9,0.3-1.2,0.5c-0.5,0.4-0.7,1-0.6,1.7c1.2-0.7,2.5-0.6,3.8-0.8c1.8-0.2,3.6-0.3,5.4-0.6c1.6-0.3,3.1-0.7,4.6-1.4
	c3-1.5,4.7-4,5.1-7.3c0-0.2,0.1-0.3,0.1-0.4C122.9,39,122.9,38.8,122.9,38.7z"/>
<path id="XMLID_634_" d="M101.7,58.5c0.3-0.9,0.4-1.9,0.4-2.9c0-1.7-0.6-3.1-1.4-4.5c-0.7-1.2-1.5-2.4-2.1-3.7
	c-0.8-1.7-0.6-3.3,0.6-4.8c0.5-0.6,1.1-1.1,1.7-1.6c2.4-2,4.7-4.1,6.8-6.4c0.8-0.9,1.6-2,2.3-3c1.2-1.6,2.2-3.4,3-5.2
	c0.8-1.6,1.2-3.3,1.6-5c0.2-0.8,0.3-1.7,0.5-2.5c0,0,0.1,0,0.1,0.1c0.1,0.1,0.1,0.2,0.2,0.3c1.9,3.2,2.2,6.5,1,10
	c-1.1,3.3-3,6-5.3,8.5c-2.4,2.5-5.1,4.6-8.1,6.3c-0.8,0.5-1.3,1.1-1.3,2c0,0.6,0.2,1.1,0.4,1.5c1.8,3.1,2.7,6.4,1.7,10
	c-0.3,1-0.7,2-1.3,2.9c-1.1,1.8-2.9,2.7-4.8,3.3c-0.8,0.2-1.7,0.6-2.5,1c-0.8,0.4-1.3,1.1-1.5,2c0,0.1-0.1,0.2-0.1,0.3
	c-0.4-1.1-0.8-2.1-1.2-3.2c-0.5-1.4-1.4-2.5-2.4-3.6c-0.6-0.6-1.3-0.8-2.1-0.4c-0.5,0.3-1,0.5-1.5,0.2c-0.5,0.6-0.4,1.3-0.2,2
	c-1.9-0.8-2.3-3.4-0.8-4.7c0.6-0.6,1.4-1,2.2-1.2c-0.2-0.5,0.1-0.8,0.5-1.1C89,54.3,90,54,91,53.9c1.6-0.2,3.1-0.1,4.6,0.4
	c2,0.7,3.7,1.8,5,3.5c0.3,0.4,0.6,0.7,0.9,1.2C101.7,58.7,101.7,58.6,101.7,58.5z M90,55.7c-0.1,1-0.9,1.4-1.7,1
	c-0.4-0.3-0.9-0.1-1.2,0.1c-0.5,0.4-1.1,0.8-1.5,1.3c-0.5,0.5-0.6,1.2-0.2,1.9c0.1-0.2,0.2-0.3,0.2-0.4c0.2-0.4,0.4-0.6,0.9-0.4
	c0.2,0.1,0.5,0,0.8-0.1c0.4-0.1,0.8-0.2,1.2-0.3c0.7-0.2,1.3,0.1,1.8,0.5c1.1,0.8,2.1,1.7,3.2,2.5c0.8,0.6,1.7,1,2.8,1.1
	c1.7,0.1,3-0.6,4.1-1.8s1-2.2-0.2-3.4c-1.1-1.1-2.3-2-3.8-2.6c-1.9-0.7-3.9-0.8-5.9-0.4c-0.5,0.1-1.1,0.2-1.5,0.5
	c-0.7,0.3-0.8,0.6-0.2,1.2C89.1,56.1,89.5,56,90,55.7z"/>
<path id="XMLID_633_" d="M121.4,29.1c-0.5,0.6-0.9,1.2-1.3,1.7c-3.3,4-7.1,7.3-11.4,10.1c-1.6,1.1-3.3,2-4.9,3
	c-0.8,0.5-1.3,1.2-1.2,2.2c0,0.1,0.1,0.3,0.1,0.4c0.1,0.3,0.2,0.4,0.5,0.3c2.9-0.7,5.6-1.7,8.2-2.9c2.3-1,4.4-2.4,6.1-4.2
	c1.1-1.1,2-2.3,2.6-3.7c1-2.2,1.4-4.5,1.4-6.9C121.5,29.3,121.5,29.3,121.4,29.1z"/>
<path id="XMLID_632_" d="M104.3,51.1c1.2-0.3,2.4,0.1,3.6,0.3c1.6,0.2,3.1,0.6,4.7,0.8c1.5,0.2,2.9,0,4.4-0.3
	c2.2-0.5,3.8-1.8,4.9-3.8c0.3-0.5,0.5-1,0.8-1.5c-0.1,0-0.1-0.1-0.1-0.1c-1.6,0.8-3.3,1.3-5,1.8c-2.6,0.8-5.3,1-7.9,1.2
	c-1.3,0.1-2.5,0.1-3.8,0.2C104.8,49.8,104.3,50.3,104.3,51.1z"/>
<path id="XMLID_629_" d="M104.4,52.3c0.8,0,1.4,0.3,2,0.6c1.6,0.8,3.1,1.6,4.7,2.3c1.2,0.5,2.4,0.8,3.8,0.8c2.2,0,3.9-1.1,5.2-2.8
	c-0.6,0-1.1,0.1-1.7,0.1c-1.7,0.1-3.4,0.2-5.1-0.1c-1.3-0.2-2.5-0.5-3.8-0.7c-1.2-0.3-2.3-0.6-3.5-0.9c-0.7-0.2-1.3,0-1.6,0.6
	C104.4,52.2,104.4,52.2,104.4,52.3z"/>
<path id="XMLID_628_" d="M116.8,58.3c-1.3-0.4-2.6-0.8-3.9-1.2c-2.4-0.8-4.5-2.2-6.6-3.6c-0.7-0.5-1.1-0.5-1.5-0.1c0,0,0,0.1,0,0
	c0.4,0.3,0.7,0.5,1.1,0.8c1.1,1,2,2.1,3.1,3c1.1,1,2.3,1.7,3.7,1.9C114.2,59.6,115.5,59.2,116.8,58.3z"/>
<path id="XMLID_624_" d="M113.1,62.3c-1.1-0.8-2.2-1.6-3.2-2.4c-1.5-1.2-2.7-2.7-3.9-4.3c-0.1-0.2-0.3-0.3-0.5-0.5
	c-0.3-0.2-0.5-0.2-0.8,0c0.4,0.7,0.7,1.3,1,2c0.6,1.3,1.2,2.6,2.2,3.7c1.4,1.5,3,2,5,1.5C113.1,62.4,113.2,62.3,113.1,62.3z"/>
<path id="XMLID_620_" d="M109.7,64.5c-1.9-1.7-3.2-3.8-4.2-6c-0.2-0.4-0.4-0.7-0.8-0.6c0.3,1,0.5,2.1,0.8,3.1
	c0.3,0.8,0.6,1.5,1.1,2.2C107.3,64.3,108.4,64.6,109.7,64.5z"/>
<path id="XMLID_618_" d="M107.1,66.2c-0.2-0.4-0.5-0.8-0.7-1.1c-0.9-1.5-1.3-3.2-1.7-4.9c-0.1-0.4-0.2-0.6-0.6-0.7
	c0,1.2,0,2.3,0.1,3.5c0.1,1.7,1.1,2.8,2.6,3.2C106.9,66.2,107,66.2,107.1,66.2z"/>
<path id="XMLID_617_" d="M104.1,67.6c-0.2-1.2-0.4-2.4-0.5-3.6c-0.1-0.9,0-1.9,0.1-2.8c0-0.5-0.1-0.7-0.4-0.8
	c-0.2,0.9-0.5,1.9-0.7,2.8c-0.1,0.6-0.2,1.1-0.2,1.7C102.4,66.2,103.1,67,104.1,67.6z"/>
<path id="XMLID_602_" d="M104.9,77.8C105,77.9,105,77.9,104.9,77.8c-0.4-1.2-2.3-3.6-6-5.7c-1.9-1.1-3.8-3.1-5.3-5
	C95.6,74.8,100.8,73.1,104.9,77.8z"/>
<path id="XMLID_648_" d="M70.1,29c10,0,19.1,3.3,26.4,8.8h4.5c-8.4-7.5-19.3-11.6-30.8-11.6C58,26.2,46.6,30.7,38,39
	c-8.6,8.2-13.3,19.2-13.3,30.8h2.8C27.6,47.3,46.6,29,70.1,29z"/>
<path id="XMLID_649_" d="M115.3,66h-2.8c0.1,1.3,0.2,2.5,0.2,3.8c0,22.5-19.1,40.8-42.6,40.8c-9.9,0-19-3.3-26.2-8.7h-4.5
	c8.4,7.5,19.2,11.5,30.7,11.5c12.1,0,23.5-4.5,32.1-12.8c8.6-8.2,13.3-19.2,13.3-30.9C115.5,68.5,115.4,67.3,115.3,66z"/>
<g id="XMLID_22_">
	<path id="XMLID_30_" class="st2" d="M151.4,36.3L151.4,36.3c0.4,0.3,0.8,0.7,1,1.2l6.1,14.7v0.1c0,0.3-0.1,0.4-0.3,0.4
		c-0.2,0-0.3-0.1-0.3-0.2l-1.8-4.4h-12.4l-1.8,4.4c0,0.1-0.2,0.2-0.3,0.2c-0.1,0-0.2,0-0.3-0.1c-0.1,0-0.1-0.2-0.1-0.3
		c0,0,0-0.1,0-0.1l6.1-14.7c0.2-0.6,0.6-1,1-1.3l0,0c0.4-0.3,0.9-0.4,1.4-0.4C150.4,35.8,150.9,35.9,151.4,36.3L151.4,36.3z
		 M149.1,36.6l-0.3,0.3c-0.3,0.3-0.6,0.6-0.7,0.9l-4,9.6h11.8l-4-9.6c-0.1-0.4-0.4-0.7-0.7-0.9l0,0c-0.3-0.2-0.7-0.3-1.1-0.3
		C149.6,36.5,149.4,36.6,149.1,36.6L149.1,36.6L149.1,36.6z"/>
	<path id="XMLID_29_" class="st2" d="M183.2,52.3c0,0.3-0.1,0.4-0.4,0.4c-0.1,0-0.2,0-0.3-0.1c-0.1-0.1-0.1-0.2-0.1-0.3v-7.1
		c0-0.6-0.1-1.2-0.3-1.7c-0.3-0.6-0.6-1-1-1.4c-0.4-0.4-0.9-0.7-1.4-1c-0.5-0.2-1.1-0.3-1.7-0.3H177c-0.6,0-1.2,0.1-1.7,0.3
		c-0.5,0.2-1,0.6-1.4,1c-0.4,0.4-0.7,0.9-1,1.4c-0.2,0.5-0.3,1.1-0.4,1.7v7.2c0,0.3-0.1,0.4-0.4,0.4c-0.3,0-0.4-0.1-0.4-0.4v-7.1
		c0-0.6-0.1-1.2-0.3-1.7c-0.3-0.5-0.6-1-1-1.4c-0.4-0.4-0.9-0.7-1.4-1s-1.1-0.3-1.7-0.3h-1.1c-0.6,0-1.1,0.1-1.7,0.3
		c-0.5,0.2-1,0.6-1.4,1c-0.4,0.4-0.7,0.9-1,1.4c-0.3,0.5-0.4,1.1-0.4,1.7v7.2c0,0.3-0.1,0.4-0.4,0.4c-0.3,0-0.4-0.1-0.4-0.4v-7.2
		c0-0.7,0.2-1.4,0.4-2s0.7-1.2,1.1-1.7c0.5-0.5,1-0.8,1.7-1.1s1.3-0.4,2-0.4h1.1c0.9,0,1.8,0.2,2.6,0.7c0.8,0.4,1.4,1.1,1.9,1.9
		l0.3,0.6l0.3-0.6c0.5-0.8,1.2-1.4,2-1.9c0.8-0.4,1.6-0.7,2.6-0.7h1.1c0.7,0,1.3,0.1,2,0.4c0.6,0.3,1.2,0.7,1.7,1.1
		c0.5,0.5,0.9,1,1.1,1.7s0.4,1.3,0.4,2v0v7.1H183.2z"/>
	<path id="XMLID_28_" class="st2" d="M187.1,49.3c0.3,0.8,0.9,1.4,1.7,1.9c0.7,0.5,1.5,0.7,2.4,0.7h5.6c0.3,0,0.4,0.1,0.4,0.4
		s-0.1,0.4-0.4,0.4h-5.6c-0.8,0-1.5-0.1-2.1-0.4c-0.7-0.3-1.2-0.7-1.7-1.2c-0.5-0.5-0.8-1.1-1.1-1.7c-0.3-0.7-0.4-1.3-0.4-2.1v-2.1
		c0-0.7,0.1-1.4,0.4-2c0.3-0.7,0.7-1.2,1.1-1.7c0.5-0.5,1-0.9,1.7-1.1c0.7-0.3,1.3-0.4,2-0.4h2.3c0.7,0,1.4,0.1,2,0.4
		c0.7,0.3,1.2,0.7,1.7,1.1c0.5,0.5,0.9,1,1.1,1.7c0.3,0.7,0.4,1.3,0.4,2v2.1c0,0.2-0.1,0.4-0.2,0.6c-0.1,0.1-0.3,0.2-0.5,0.2h-11.4
		L187.1,49.3z M197.8,45.1c0-0.6-0.1-1.2-0.3-1.7c-0.2-0.5-0.6-1-1-1.4c-0.4-0.4-0.9-0.7-1.4-1c-0.5-0.2-1.1-0.3-1.7-0.3h-2.3
		c-0.6,0-1.1,0.1-1.7,0.3c-0.5,0.2-1,0.6-1.4,1c-0.4,0.4-0.7,0.9-1,1.4c-0.3,0.5-0.3,1.1-0.3,1.7v2h11.2L197.8,45.1L197.8,45.1z"/>
	<path id="XMLID_27_" class="st2" d="M201.8,45.1c0-0.7,0.2-1.4,0.4-2s0.7-1.2,1.1-1.7c0.5-0.5,1-0.8,1.7-1.1c0.7-0.3,1.3-0.4,2-0.4
		h1.7c0.7,0,1.4,0.1,2,0.4c0.7,0.3,1.2,0.7,1.7,1.1c0.1,0,0.1,0.1,0.1,0.3c0,0.3-0.1,0.4-0.4,0.4c-0.1,0-0.2,0-0.3-0.1
		c-0.4-0.4-0.9-0.7-1.4-1c-0.5-0.2-1.1-0.3-1.7-0.3H207c-0.6,0-1.1,0.1-1.7,0.3c-0.5,0.2-1,0.6-1.4,1c-0.4,0.4-0.7,0.9-1,1.4
		c-0.3,0.5-0.4,1.1-0.4,1.7v7.2c0,0.3-0.1,0.4-0.4,0.4s-0.4-0.1-0.4-0.4V45.1L201.8,45.1z"/>
	<path id="XMLID_26_" class="st2" d="M216,36.5c0.2,0,0.3,0,0.4,0.1c0.1,0.1,0.1,0.2,0.1,0.4s0,0.3-0.1,0.4
		c-0.1,0.1-0.2,0.1-0.4,0.1c-0.2,0-0.3,0-0.4-0.1c-0.1-0.1-0.1-0.2-0.1-0.4s0-0.3,0.1-0.4C215.7,36.5,215.9,36.5,216,36.5z
		 M215.6,40.5c0-0.3,0.1-0.4,0.4-0.4c0.3,0,0.4,0.1,0.4,0.4v11.8c0,0.3-0.1,0.4-0.4,0.4c-0.3,0-0.4-0.1-0.4-0.4V40.5z"/>
	<path id="XMLID_25_" class="st2" d="M230.5,51.9c0.3,0,0.4,0.1,0.4,0.4s-0.1,0.4-0.4,0.4h-4.9c-0.7,0-1.4-0.1-2-0.4
		c-0.7-0.3-1.2-0.7-1.7-1.1c-0.5-0.5-0.9-1-1.1-1.7c-0.3-0.7-0.4-1.3-0.4-2v-2.3c0-0.7,0.1-1.4,0.4-2c0.3-0.7,0.7-1.2,1.1-1.7
		c0.5-0.5,1-0.9,1.7-1.1c0.7-0.3,1.3-0.4,2-0.4h4.9c0.3,0,0.4,0.1,0.4,0.4c0,0.3-0.1,0.4-0.4,0.4h-4.9c-0.6,0-1.1,0.1-1.7,0.3
		c-0.5,0.2-1,0.6-1.4,1c-0.4,0.4-0.7,0.9-1,1.4c-0.3,0.6-0.3,1.1-0.3,1.7v2.3c0,0.6,0.1,1.2,0.3,1.7c0.2,0.5,0.6,1,1,1.4
		c0.4,0.4,0.9,0.7,1.4,1c0.5,0.2,1.1,0.3,1.7,0.3h4.5L230.5,51.9L230.5,51.9z"/>
	<path id="XMLID_24_" class="st2" d="M240.5,39.9c0.7,0,1.4,0.1,2,0.4c0.7,0.3,1.2,0.7,1.7,1.1c0.5,0.5,0.9,1,1.1,1.7
		c0.3,0.7,0.4,1.3,0.4,2v2.3c0,0.7-0.1,1.4-0.4,2s-0.7,1.2-1.1,1.7c-0.5,0.5-1,0.9-1.7,1.1c-0.7,0.3-1.3,0.4-2,0.4h-3.3
		c-0.6,0-1.1-0.1-1.6-0.3c-0.5-0.2-0.9-0.5-1.3-0.9c-0.4-0.4-0.7-0.8-0.9-1.3c-0.2-0.5-0.3-1-0.3-1.6c0-0.6,0.1-1.1,0.3-1.6
		c0.2-0.5,0.5-0.9,0.9-1.3c0.4-0.3,0.8-0.7,1.3-0.9c0.5-0.2,1-0.3,1.6-0.3h7.8l-0.1-0.5c-0.1-0.5-0.3-0.9-0.6-1.3
		c-0.3-0.4-0.6-0.8-1-1c-0.4-0.3-0.8-0.5-1.3-0.7c-0.5-0.2-1-0.3-1.4-0.3h-5.3c-0.3,0-0.4-0.1-0.4-0.4s0.1-0.4,0.4-0.4h0.4
		L240.5,39.9L240.5,39.9z M240.4,51.9c0.6,0,1.2-0.1,1.7-0.3c0.6-0.2,1-0.6,1.4-1c0.4-0.4,0.7-0.9,1-1.4c0.2-0.5,0.3-1.1,0.3-1.7
		v-2.1h-7.8c-0.5,0-0.9,0.1-1.3,0.3s-0.7,0.4-1,0.7c-0.3,0.3-0.5,0.7-0.7,1c-0.2,0.4-0.3,0.8-0.3,1.3c0,0.5,0.1,0.9,0.3,1.3
		c0.2,0.4,0.4,0.7,0.7,1c0.3,0.3,0.7,0.5,1,0.7s0.8,0.3,1.3,0.3h1.8L240.4,51.9L240.4,51.9z"/>
	<path id="XMLID_23_" class="st2" d="M261.6,52.3c0,0.3-0.1,0.4-0.4,0.4c-0.3,0-0.4-0.1-0.4-0.4v-7.1c0-0.6-0.1-1.2-0.3-1.7
		c-0.3-0.5-0.6-1-1-1.4c-0.4-0.4-0.9-0.7-1.4-1c-0.5-0.2-1.1-0.3-1.7-0.3H254c-0.6,0-1.1,0.1-1.7,0.3c-0.5,0.2-1,0.6-1.4,1
		c-0.4,0.4-0.7,0.9-1,1.4c-0.3,0.5-0.4,1.1-0.4,1.7v7.2c0,0.3-0.1,0.4-0.4,0.4c-0.3,0-0.4-0.1-0.4-0.4v-7.2c0-0.7,0.2-1.4,0.4-2
		c0.3-0.6,0.7-1.2,1.1-1.7c0.5-0.5,1-0.8,1.7-1.1c0.7-0.3,1.3-0.4,2-0.4h2.3c0.7,0,1.4,0.1,2,0.4c0.7,0.3,1.2,0.7,1.6,1.1
		s0.9,1,1.1,1.7c0.3,0.7,0.4,1.3,0.4,2v0L261.6,52.3L261.6,52.3z"/>
</g>
<g id="XMLID_13_">
	<path id="XMLID_21_" class="st2" d="M151.9,61.1L151.9,61.1c0.5,0.3,0.8,0.7,1,1.2l6.2,14.8v0.1c0,0.3-0.1,0.4-0.3,0.4
		c-0.2,0-0.3-0.1-0.3-0.2l-1.9-4.4h-12.5l-1.9,4.4c0,0.1-0.2,0.2-0.3,0.2c-0.1,0-0.2,0-0.3-0.1c-0.1-0.1-0.1-0.2-0.1-0.3
		c0,0,0-0.1,0-0.2l6.2-14.8c0.2-0.6,0.6-1,1-1.3l0,0c0.4-0.3,1-0.4,1.5-0.4C150.9,60.6,151.5,60.7,151.9,61.1L151.9,61.1z
		 M149.6,61.4l-0.3,0.3c-0.3,0.3-0.6,0.6-0.8,0.9l-4,9.6h11.9l-4-9.6c-0.1-0.4-0.4-0.7-0.7-0.9l0,0c-0.3-0.2-0.7-0.3-1.2-0.3
		C150.1,61.3,149.9,61.4,149.6,61.4L149.6,61.4L149.6,61.4z"/>
	<path id="XMLID_20_" class="st2" d="M161.5,61c0-0.3,0.1-0.4,0.4-0.4c0.3,0,0.4,0.1,0.4,0.4v16.2c0,0.3-0.1,0.4-0.4,0.4
		c-0.3,0-0.4-0.1-0.4-0.4V61z"/>
	<path id="XMLID_19_" class="st2" d="M166.4,65.2c0-0.3,0.1-0.4,0.4-0.4c0.3,0,0.4,0.1,0.4,0.4v7.3c0,0.6,0.2,1.2,0.4,1.7
		c0.3,0.5,0.6,1,1,1.4c0.4,0.4,0.9,0.7,1.4,0.9c0.5,0.2,1.1,0.3,1.7,0.3h1.1c0.6,0,1.2-0.1,1.7-0.3c0.5-0.2,1-0.6,1.4-1
		c0.4-0.4,0.7-0.9,1-1.4c0.2-0.5,0.3-1.1,0.3-1.7v-7.2c0-0.3,0.1-0.4,0.4-0.4c0.3,0,0.4,0.1,0.4,0.4v7.3c0,0.7-0.2,1.4-0.5,2
		c-0.3,0.7-0.7,1.2-1.1,1.7c-0.5,0.5-1,0.9-1.7,1.1c-0.7,0.3-1.3,0.4-2,0.4h-1.1c-0.7,0-1.4-0.1-2-0.4c-0.7-0.3-1.2-0.7-1.7-1.1
		c-0.5-0.5-0.8-1-1.1-1.7c-0.3-0.6-0.4-1.3-0.5-2v0L166.4,65.2L166.4,65.2z"/>
	<path id="XMLID_18_" class="st2" d="M203.1,77.2c0,0.3-0.1,0.4-0.4,0.4c-0.1,0-0.2,0-0.3-0.1c-0.1-0.1-0.1-0.2-0.1-0.3V70
		c0-0.6-0.1-1.2-0.3-1.7c-0.3-0.6-0.6-1-1-1.4c-0.4-0.4-0.9-0.7-1.4-1c-0.5-0.2-1.1-0.3-1.7-0.3h-1.1c-0.6,0-1.2,0.1-1.7,0.3
		c-0.5,0.2-1,0.6-1.4,1c-0.4,0.4-0.7,0.9-1,1.4c-0.2,0.5-0.3,1.1-0.4,1.7v7.3c0,0.3-0.1,0.4-0.4,0.4c-0.3,0-0.4-0.1-0.4-0.4v-7.2
		c0-0.6-0.1-1.2-0.3-1.7c-0.3-0.5-0.6-1-1-1.4c-0.4-0.4-0.9-0.7-1.4-1c-0.5-0.2-1.1-0.3-1.7-0.3h-1.1c-0.6,0-1.1,0.1-1.7,0.3
		c-0.5,0.2-1,0.6-1.4,1c-0.4,0.4-0.7,0.9-1,1.4c-0.3,0.5-0.4,1.1-0.4,1.7v7.3c0,0.3-0.1,0.4-0.4,0.4c-0.3,0-0.4-0.1-0.4-0.4v-7.3
		c0-0.7,0.2-1.4,0.5-2c0.3-0.6,0.7-1.2,1.1-1.7c0.5-0.5,1-0.9,1.7-1.1c0.7-0.3,1.3-0.4,2-0.4h1.1c0.9,0,1.8,0.2,2.6,0.7
		c0.8,0.4,1.4,1.1,1.9,1.9l0.3,0.6l0.3-0.6c0.5-0.8,1.2-1.4,2-1.9c0.8-0.4,1.7-0.7,2.6-0.7h1.1c0.7,0,1.4,0.1,2,0.4
		c0.6,0.3,1.2,0.7,1.7,1.1s0.9,1,1.1,1.7c0.3,0.7,0.4,1.3,0.5,2v0v7.3H203.1z"/>
	<path id="XMLID_17_" class="st2" d="M206.4,61.3c0.2,0,0.3,0,0.4,0.2c0.1,0.1,0.2,0.2,0.2,0.4s0,0.3-0.2,0.4
		c-0.1,0.1-0.2,0.2-0.4,0.2c-0.2,0-0.3,0-0.4-0.2c-0.1-0.1-0.2-0.2-0.2-0.4s0-0.3,0.2-0.4C206.1,61.3,206.2,61.3,206.4,61.3z
		 M206,65.3c0-0.3,0.1-0.4,0.4-0.4c0.3,0,0.4,0.1,0.4,0.4v11.9c0,0.3-0.1,0.4-0.4,0.4c-0.3,0-0.4-0.1-0.4-0.4V65.3z"/>
	<path id="XMLID_16_" class="st2" d="M223.7,77.2c0,0.3-0.1,0.4-0.4,0.4c-0.3,0-0.4-0.1-0.4-0.4V70c0-0.6-0.1-1.2-0.3-1.7
		c-0.3-0.5-0.6-1-1-1.4c-0.4-0.4-0.9-0.7-1.4-1c-0.5-0.2-1.1-0.3-1.7-0.3h-2.3c-0.6,0-1.2,0.1-1.7,0.3s-1,0.6-1.4,1
		c-0.4,0.4-0.7,0.9-1,1.4c-0.3,0.5-0.4,1.1-0.4,1.7v7.3c0,0.3-0.1,0.4-0.4,0.4c-0.3,0-0.4-0.1-0.4-0.4v-7.3c0-0.7,0.2-1.4,0.5-2
		c0.3-0.6,0.7-1.2,1.1-1.7c0.5-0.5,1-0.9,1.7-1.1c0.7-0.3,1.3-0.4,2-0.4h2.3c0.7,0,1.4,0.1,2,0.4s1.2,0.7,1.7,1.1
		c0.5,0.5,0.9,1,1.1,1.7c0.3,0.7,0.4,1.3,0.4,2v0L223.7,77.2L223.7,77.2z"/>
	<path id="XMLID_15_" class="st2" d="M226.9,65.2c0-0.3,0.1-0.4,0.4-0.4c0.3,0,0.4,0.1,0.4,0.4v7.3c0,0.6,0.2,1.2,0.4,1.7
		c0.3,0.5,0.6,1,1,1.4c0.4,0.4,0.9,0.7,1.4,0.9c0.5,0.2,1.1,0.3,1.7,0.3h1.1c0.6,0,1.2-0.1,1.7-0.3c0.5-0.2,1-0.6,1.4-1
		c0.4-0.4,0.7-0.9,1-1.4c0.2-0.5,0.3-1.1,0.3-1.7v-7.2c0-0.3,0.1-0.4,0.4-0.4c0.3,0,0.4,0.1,0.4,0.4v7.3c0,0.7-0.2,1.4-0.5,2
		c-0.3,0.7-0.7,1.2-1.1,1.7c-0.5,0.5-1,0.9-1.7,1.1c-0.7,0.3-1.3,0.4-2,0.4h-1.1c-0.7,0-1.4-0.1-2-0.4c-0.7-0.3-1.2-0.7-1.7-1.1
		c-0.5-0.5-0.8-1-1.1-1.7c-0.3-0.6-0.4-1.3-0.5-2v0L226.9,65.2L226.9,65.2z"/>
	<path id="XMLID_14_" class="st2" d="M263.7,77.2c0,0.3-0.1,0.4-0.4,0.4c-0.1,0-0.2,0-0.3-0.1c-0.1-0.1-0.1-0.2-0.1-0.3V70
		c0-0.6-0.1-1.2-0.3-1.7c-0.3-0.6-0.6-1-1-1.4c-0.4-0.4-0.9-0.7-1.4-1c-0.5-0.2-1.1-0.3-1.7-0.3h-1.1c-0.6,0-1.2,0.1-1.7,0.3
		c-0.5,0.2-1,0.6-1.4,1c-0.4,0.4-0.7,0.9-1,1.4c-0.2,0.5-0.3,1.1-0.4,1.7v7.3c0,0.3-0.1,0.4-0.4,0.4c-0.3,0-0.4-0.1-0.4-0.4v-7.2
		c0-0.6-0.1-1.2-0.3-1.7c-0.3-0.5-0.6-1-1-1.4c-0.4-0.4-0.9-0.7-1.4-1c-0.5-0.2-1.1-0.3-1.7-0.3h-1.1c-0.6,0-1.1,0.1-1.7,0.3
		c-0.5,0.2-1,0.6-1.4,1c-0.4,0.4-0.7,0.9-1,1.4c-0.3,0.5-0.4,1.1-0.4,1.7v7.3c0,0.3-0.1,0.4-0.4,0.4c-0.3,0-0.4-0.1-0.4-0.4v-7.3
		c0-0.7,0.2-1.4,0.5-2c0.3-0.6,0.7-1.2,1.1-1.7c0.5-0.5,1-0.9,1.7-1.1c0.7-0.3,1.3-0.4,2-0.4h1.1c0.9,0,1.8,0.2,2.6,0.7
		c0.8,0.4,1.4,1.1,1.9,1.9l0.3,0.6l0.3-0.6c0.5-0.8,1.2-1.4,2-1.9c0.8-0.4,1.7-0.7,2.6-0.7h1.1c0.7,0,1.4,0.1,2,0.4
		c0.6,0.3,1.2,0.7,1.7,1.1s0.9,1,1.1,1.7c0.3,0.7,0.4,1.3,0.5,2v0v7.3H263.7z"/>
</g>
<g id="XMLID_1_">
	<path id="XMLID_12_" class="st2" d="M142.7,92.3c0-1,0.2-1.9,0.6-2.7s0.9-1.6,1.5-2.2c0.7-0.7,1.4-1.1,2.3-1.5
		c0.9-0.4,1.7-0.6,2.7-0.6h3c0.3,0,0.4,0.1,0.4,0.4c0,0.3-0.1,0.4-0.4,0.4h-3c-0.9,0-1.7,0.2-2.4,0.5c-0.7,0.3-1.4,0.8-2,1.3
		c-0.6,0.6-1,1.2-1.3,2c-0.3,0.7-0.5,1.6-0.5,2.4v4.3h9.2c0.3,0,0.4,0.1,0.4,0.4c0,0.3-0.1,0.4-0.4,0.4h-9.2v4.2
		c0,0.3-0.1,0.4-0.4,0.4c-0.3,0-0.4-0.1-0.4-0.4v-0.4L142.7,92.3L142.7,92.3z"/>
	<path id="XMLID_11_" class="st2" d="M163.4,89.5c0.7,0,1.3,0.1,2,0.4c0.7,0.3,1.2,0.7,1.7,1.1c0.5,0.5,0.9,1,1.1,1.7
		c0.3,0.7,0.4,1.3,0.4,2V97c0,0.7-0.1,1.4-0.4,2c-0.3,0.7-0.7,1.2-1.1,1.7c-0.5,0.5-1,0.8-1.7,1.1c-0.7,0.3-1.3,0.4-2,0.4H160
		c-0.6,0-1.1-0.1-1.6-0.3c-0.5-0.2-0.9-0.5-1.3-0.9c-0.4-0.4-0.7-0.8-0.9-1.3c-0.2-0.5-0.3-1-0.3-1.6c0-0.6,0.1-1.1,0.3-1.6
		c0.2-0.5,0.5-0.9,0.9-1.3c0.4-0.3,0.8-0.7,1.3-0.9c0.5-0.2,1-0.3,1.6-0.3h7.7l-0.1-0.5c-0.1-0.5-0.3-0.9-0.6-1.3
		c-0.3-0.4-0.6-0.8-1-1c-0.4-0.3-0.8-0.5-1.3-0.7c-0.5-0.2-1-0.3-1.4-0.3h-5.3c-0.3,0-0.4-0.1-0.4-0.4c0-0.3,0.1-0.4,0.4-0.4h0.4
		L163.4,89.5L163.4,89.5z M163.4,101.4c0.6,0,1.2-0.1,1.7-0.3c0.5-0.3,1-0.6,1.4-1c0.4-0.4,0.7-0.9,1-1.4c0.2-0.5,0.3-1.1,0.3-1.7
		V95h-7.7c-0.5,0-0.9,0.1-1.3,0.3c-0.4,0.2-0.7,0.4-1,0.7c-0.3,0.3-0.5,0.7-0.7,1c-0.2,0.4-0.3,0.8-0.3,1.3c0,0.5,0.1,0.9,0.3,1.3
		c0.2,0.4,0.4,0.7,0.7,1s0.7,0.5,1,0.7c0.4,0.2,0.8,0.3,1.3,0.3h1.8L163.4,101.4L163.4,101.4z"/>
	<path id="XMLID_10_" class="st2" d="M171.7,85.6c0-0.3,0.1-0.4,0.4-0.4s0.4,0.1,0.4,0.4v6.1l0.7-0.7c0.5-0.5,1-0.9,1.7-1.1
		c0.7-0.3,1.3-0.4,2-0.4h2.3c0.7,0,1.3,0.1,2,0.4c0.6,0.3,1.2,0.7,1.7,1.1s0.8,1,1.1,1.7c0.3,0.6,0.4,1.3,0.4,2V97
		c0,0.7-0.1,1.3-0.4,2c-0.3,0.7-0.7,1.2-1.1,1.7c-0.5,0.5-1,0.8-1.7,1.1c-0.6,0.3-1.3,0.4-2,0.4h-2.3c-0.7,0-1.3-0.1-2-0.4
		c-0.7-0.3-1.2-0.7-1.7-1.1c-0.5-0.5-0.8-1-1.1-1.7s-0.4-1.3-0.4-2L171.7,85.6L171.7,85.6z M172.5,97c0,0.6,0.1,1.2,0.3,1.7
		c0.2,0.5,0.5,1,0.9,1.3c0.4,0.4,0.8,0.7,1.3,0.9c0.5,0.2,1.1,0.3,1.7,0.3h2.3c0.6,0,1.2-0.1,1.7-0.3c0.5-0.2,1-0.5,1.3-0.9
		c0.4-0.4,0.7-0.8,0.9-1.3c0.2-0.5,0.3-1.1,0.3-1.7v-2.5c0-0.6-0.1-1.2-0.3-1.7c-0.2-0.5-0.5-1-0.9-1.3c-0.4-0.4-0.8-0.7-1.3-0.9
		c-0.5-0.2-1.1-0.3-1.7-0.3h-2.3c-0.6,0-1.1,0.1-1.7,0.3c-0.5,0.2-1,0.5-1.4,0.9c-0.4,0.4-0.7,0.8-1,1.3c-0.3,0.5-0.3,1-0.3,1.7v0.8
		L172.5,97L172.5,97z"/>
	<path id="XMLID_9_" class="st2" d="M187.1,94.6c0-0.7,0.2-1.3,0.4-2c0.3-0.6,0.7-1.2,1.1-1.7c0.5-0.5,1-0.8,1.7-1.1s1.3-0.4,2-0.4
		h1.6c0.7,0,1.3,0.1,2,0.4c0.7,0.3,1.2,0.7,1.7,1.1c0.1,0,0.1,0.1,0.1,0.3c0,0.3-0.1,0.4-0.4,0.4c-0.1,0-0.2,0-0.3-0.1
		c-0.4-0.4-0.9-0.7-1.4-1c-0.5-0.2-1.1-0.3-1.7-0.3h-1.6c-0.6,0-1.1,0.1-1.7,0.3c-0.5,0.2-1,0.5-1.4,0.9c-0.4,0.4-0.7,0.8-1,1.3
		c-0.3,0.5-0.4,1.1-0.4,1.7v7.2c0,0.3-0.1,0.4-0.4,0.4s-0.4-0.1-0.4-0.4V94.6L187.1,94.6z"/>
	<path id="XMLID_8_" class="st2" d="M201.2,86.1c0.2,0,0.3,0,0.4,0.1s0.1,0.2,0.1,0.4c0,0.2,0,0.3-0.1,0.4c-0.1,0.1-0.2,0.1-0.4,0.1
		c-0.2,0-0.3,0-0.4-0.1c-0.1-0.1-0.1-0.2-0.1-0.4c0-0.2,0-0.3,0.1-0.4C201,86.1,201.1,86.1,201.2,86.1z M200.8,90
		c0-0.3,0.1-0.4,0.4-0.4c0.3,0,0.4,0.1,0.4,0.4v11.7c0,0.3-0.1,0.4-0.4,0.4s-0.4-0.1-0.4-0.4V90z"/>
	<path id="XMLID_7_" class="st2" d="M215.6,101.4c0.3,0,0.4,0.1,0.4,0.4c0,0.3-0.1,0.4-0.4,0.4h-4.9c-0.7,0-1.3-0.1-2-0.4
		c-0.7-0.3-1.2-0.7-1.7-1.1s-0.8-1-1.1-1.7c-0.3-0.7-0.4-1.3-0.4-2v-2.3c0-0.7,0.1-1.3,0.4-2c0.3-0.7,0.7-1.2,1.1-1.7
		c0.5-0.5,1-0.8,1.7-1.1c0.6-0.3,1.3-0.4,2-0.4h4.9c0.3,0,0.4,0.1,0.4,0.4c0,0.3-0.1,0.4-0.4,0.4h-4.9c-0.6,0-1.1,0.1-1.7,0.3
		c-0.5,0.2-1,0.5-1.4,0.9c-0.4,0.4-0.7,0.9-1,1.4c-0.3,0.5-0.3,1.1-0.3,1.7V97c0,0.6,0.1,1.2,0.3,1.7c0.2,0.5,0.6,1,1,1.4
		c0.4,0.4,0.9,0.7,1.4,1c0.5,0.2,1.1,0.3,1.7,0.3h4.5L215.6,101.4L215.6,101.4z"/>
	<path id="XMLID_6_" class="st2" d="M225.5,89.5c0.7,0,1.3,0.1,2,0.4c0.7,0.3,1.2,0.7,1.7,1.1c0.5,0.5,0.9,1,1.1,1.7
		c0.3,0.7,0.4,1.3,0.4,2V97c0,0.7-0.1,1.4-0.4,2c-0.3,0.7-0.7,1.2-1.1,1.7c-0.5,0.5-1,0.8-1.7,1.1c-0.7,0.3-1.3,0.4-2,0.4h-3.3
		c-0.6,0-1.1-0.1-1.6-0.3c-0.5-0.2-0.9-0.5-1.3-0.9c-0.4-0.4-0.7-0.8-0.9-1.3c-0.2-0.5-0.3-1-0.3-1.6c0-0.6,0.1-1.1,0.3-1.6
		c0.2-0.5,0.5-0.9,0.9-1.3c0.4-0.3,0.8-0.7,1.3-0.9c0.5-0.2,1-0.3,1.6-0.3h7.7l-0.1-0.5c-0.1-0.5-0.3-0.9-0.6-1.3
		c-0.3-0.4-0.6-0.8-1-1c-0.4-0.3-0.8-0.5-1.3-0.7c-0.5-0.2-1-0.3-1.4-0.3h-5.3c-0.3,0-0.4-0.1-0.4-0.4c0-0.3,0.1-0.4,0.4-0.4h0.4
		L225.5,89.5L225.5,89.5z M225.5,101.4c0.6,0,1.2-0.1,1.7-0.3s1-0.6,1.4-1c0.4-0.4,0.7-0.9,1-1.4c0.2-0.5,0.3-1.1,0.3-1.7V95h-7.7
		c-0.5,0-0.9,0.1-1.3,0.3c-0.4,0.2-0.7,0.4-1,0.7c-0.3,0.3-0.5,0.7-0.7,1c-0.2,0.4-0.3,0.8-0.3,1.3c0,0.5,0.1,0.9,0.3,1.3
		c0.2,0.4,0.4,0.7,0.7,1s0.7,0.5,1,0.7c0.4,0.2,0.8,0.3,1.3,0.3h1.8L225.5,101.4L225.5,101.4z"/>
	<path id="XMLID_5_" class="st2" d="M234.6,97c0,0.6,0.1,1.2,0.3,1.7s0.5,1,0.9,1.3c0.4,0.4,0.8,0.7,1.3,0.9
		c0.5,0.2,1.1,0.3,1.7,0.3h1.1c0.3,0,0.4,0.1,0.4,0.4c0,0.3-0.1,0.4-0.4,0.4h-1.1c-0.7,0-1.3-0.1-2-0.4c-0.7-0.3-1.2-0.7-1.7-1.1
		c-0.5-0.5-0.8-1-1.1-1.7s-0.4-1.3-0.4-2V85.8c0-0.3,0.1-0.4,0.4-0.4s0.4,0.1,0.4,0.4v3.6h5.2c0.3,0,0.4,0.1,0.4,0.4
		c0,0.3-0.1,0.4-0.4,0.4h-5.2v5.3V97z"/>
	<path id="XMLID_4_" class="st2" d="M251.3,89.5c0.7,0,1.3,0.1,2,0.4c0.7,0.3,1.2,0.7,1.7,1.1c0.5,0.5,0.8,1,1.1,1.7
		c0.3,0.7,0.4,1.3,0.4,2V97c0,0.7-0.1,1.3-0.4,2c-0.3,0.7-0.7,1.2-1.1,1.7c-0.5,0.5-1,0.8-1.7,1.1c-0.7,0.3-1.3,0.4-2,0.4H249
		c-0.7,0-1.3-0.1-2-0.4c-0.7-0.3-1.2-0.7-1.7-1.1c-0.5-0.5-0.8-1-1.1-1.7c-0.3-0.7-0.4-1.3-0.4-2v-2.3c0-0.7,0.1-1.3,0.4-2
		c0.3-0.7,0.7-1.2,1.1-1.7c0.5-0.5,1-0.8,1.7-1.1c0.7-0.3,1.3-0.4,2-0.4H251.3z M249,90.3c-0.6,0-1.1,0.1-1.7,0.3
		c-0.5,0.2-1,0.5-1.4,0.9c-0.4,0.4-0.7,0.9-1,1.4c-0.3,0.5-0.3,1.1-0.3,1.7V97c0,0.6,0.1,1.1,0.3,1.7s0.6,1,1,1.4
		c0.4,0.4,0.9,0.7,1.4,1c0.5,0.3,1.1,0.3,1.7,0.3h2.3c0.6,0,1.2-0.1,1.7-0.3c0.5-0.2,1-0.6,1.4-1c0.4-0.4,0.7-0.9,1-1.4
		c0.2-0.5,0.3-1.1,0.3-1.7v-2.3c0-0.6-0.1-1.2-0.3-1.7c-0.3-0.5-0.6-1-1-1.4c-0.4-0.4-0.9-0.7-1.4-1c-0.5-0.2-1.1-0.3-1.7-0.3
		L249,90.3L249,90.3z"/>
	<path id="XMLID_3_" class="st2" d="M259.6,94.6c0-0.7,0.2-1.3,0.4-2c0.3-0.6,0.7-1.2,1.1-1.7c0.5-0.5,1-0.8,1.6-1.1
		c0.7-0.3,1.3-0.4,2-0.4h1.6c0.7,0,1.3,0.1,2,0.4c0.7,0.3,1.2,0.7,1.7,1.1c0.1,0,0.1,0.1,0.1,0.3c0,0.3-0.1,0.4-0.4,0.4
		c-0.1,0-0.2,0-0.3-0.1c-0.4-0.4-0.9-0.7-1.4-1c-0.5-0.2-1.1-0.3-1.7-0.3h-1.6c-0.6,0-1.1,0.1-1.7,0.3s-1,0.5-1.4,0.9
		c-0.4,0.4-0.7,0.8-1,1.3c-0.3,0.5-0.4,1.1-0.4,1.7v7.2c0,0.3-0.1,0.4-0.4,0.4s-0.4-0.1-0.4-0.4V94.6L259.6,94.6z"/>
	<path id="XMLID_2_" class="st2" d="M284.4,92.6c0,0.3-0.1,0.4-0.4,0.4c-0.3,0-0.4-0.1-0.4-0.4v-0.3c0-0.2,0-0.4-0.1-0.7
		c-0.1-0.2-0.2-0.4-0.3-0.6L283,91c-0.4-0.4-1-0.7-1.6-0.7h-4.9c-0.6,0-1.2,0.2-1.6,0.7c-0.4,0.4-0.7,1-0.7,1.6
		c0,0.8,0.3,1.3,0.8,1.7c0.5,0.4,1.2,0.7,2,0.8c0.8,0.2,1.7,0.3,2.6,0.4c0.9,0.1,1.8,0.3,2.6,0.5c0.8,0.2,1.4,0.6,2,1
		c0.5,0.5,0.8,1.1,0.8,2c0,0.4-0.1,0.8-0.3,1.2c-0.2,0.4-0.4,0.7-0.7,1c-0.3,0.3-0.6,0.5-1,0.7c-0.4,0.2-0.8,0.3-1.2,0.3h-5.3
		c-0.4,0-0.8-0.1-1.1-0.2c-0.3-0.1-0.7-0.3-1-0.6c-0.3-0.3-0.5-0.5-0.7-0.9c-0.2-0.3-0.3-0.7-0.3-1c0-0.2,0-0.3,0-0.5
		s0.2-0.3,0.3-0.3c0.3,0,0.4,0.1,0.4,0.4v0.3c0,0.3,0.1,0.5,0.2,0.8c0.1,0.2,0.3,0.4,0.5,0.6c0.2,0.2,0.4,0.3,0.7,0.4
		c0.3,0.1,0.5,0.1,0.8,0.1h5.4c0.6,0,1.2-0.2,1.6-0.7c0.4-0.4,0.7-1,0.7-1.6c0-0.4-0.1-0.8-0.3-1.1c-0.2-0.3-0.4-0.5-0.7-0.7
		c-0.3-0.2-0.6-0.3-0.9-0.4c-0.3-0.1-0.7-0.2-1-0.3c-0.7-0.1-1.4-0.2-2.3-0.3c-0.9-0.1-1.7-0.3-2.5-0.5c-0.8-0.3-1.5-0.6-2-1.1
		c-0.6-0.5-0.8-1.2-0.8-2.1c0-0.4,0.1-0.9,0.3-1.2c0.2-0.4,0.4-0.7,0.7-1c0.3-0.3,0.6-0.5,1-0.7c0.4-0.2,0.8-0.3,1.2-0.3h4.9
		c0.8,0,1.6,0.3,2.2,0.9l0.1,0.1c0.2,0.3,0.4,0.5,0.6,0.9s0.3,0.7,0.3,1c0,0,0,0.1,0,0.1C284.4,92.4,284.4,92.5,284.4,92.6z"/>
</g>
</svg>
